<svg id="Capa_1" data-name="Capa 1" xmlns="http://www.w3.org/2000/svg" viewBox="0 0 30.06 25.71"><defs><style>.cls-1{fill:#fff0d9;}</style></defs><path class="cls-1" d="M17,7.38a5.78,5.78,0,0,0-5.34-5.2A11.4,11.4,0,0,0,4.56,4.63a6.37,6.37,0,0,0-1.72.19C1.1,5.23-.16,6.18,0,6.92c.12.5.84.78,1.82.79a11.38,11.38,0,0,0,4,15.77A4.44,4.44,0,0,0,5,25c-.48,1.35-.32,2.65.36,2.88s1.61-.66,2.09-2A5,5,0,0,0,7.63,25a5.15,5.15,0,0,0,.86.21c1.42.2,2.65-.21,2.76-.92s-1-1.45-2.39-1.66a4.25,4.25,0,0,0-1.65.06,8.87,8.87,0,0,1-.93-2.78,6,6,0,0,1,1.36-4.23A5.89,5.89,0,0,1,9,14.52c-.09,1.2.19,2.14.76,2.29.74.18,1.7-1.07,2.13-2.8a3.82,3.82,0,0,0,.09-.44l.4-.07A5.74,5.74,0,0,0,17,7.38Z" transform="translate(0 -2.18)"/><path class="cls-1" d="M13.1,22.69a5.78,5.78,0,0,0,5.34,5.19,11.4,11.4,0,0,0,7.06-2.45,6.67,6.67,0,0,0,1.72-.18c1.74-.42,3-1.36,2.83-2.11-.12-.49-.85-.77-1.82-.79a11.39,11.39,0,0,0-4-15.76A4.27,4.27,0,0,0,25.1,5.1c.48-1.35.32-2.64-.36-2.88s-1.61.66-2.09,2a4.79,4.79,0,0,0-.21.85,5.41,5.41,0,0,0-.86-.21c-1.42-.2-2.66.21-2.76.92s1,1.45,2.39,1.66a4.19,4.19,0,0,0,1.64-.06,8.6,8.6,0,0,1,.93,2.78,5.63,5.63,0,0,1-2.71,5.36c.09-1.2-.19-2.14-.76-2.28-.75-.19-1.7,1.07-2.14,2.8l-.09.44-.39.07A5.73,5.73,0,0,0,13.1,22.69Z" transform="translate(0 -2.18)"/></svg>