<svg id="Capa_1" data-name="Capa 1" xmlns="http://www.w3.org/2000/svg" viewBox="0 0 297 297"><defs><style>.cls-1{fill:#fff0d9;}</style></defs><path class="cls-1" d="M75.11,169.92A9.66,9.66,0,0,0,81,159.22a56.81,56.81,0,0,1-.91-10.72v-4c.56-4.22-2.29-9.17-6.32-11L51.15,123.25c-4-1.83-7.33.3-7.33,4.73v45.63c0,4.43,3.4,6.78,7.54,5.22Z" transform="translate(0 0)"/><path class="cls-1" d="M81.47,111.76a10.28,10.28,0,0,0,12-3.2L103.05,98a12.65,12.65,0,0,0,3.19-12.89L97.38,61.46c-1.55-4.15-5.38-5-8.51-1.83L56.52,92.14c-3.12,3.14-2.38,7.21,1.65,9Z" transform="translate(0 0)"/><path class="cls-1" d="M169.9,221.9A9.69,9.69,0,0,0,159.19,216a56.26,56.26,0,0,1-10.69.91h-4c-4.22-.56-9.17,2.28-11,6.32L123,246.39c-1.83,4,.29,7.33,4.72,7.33h46.06c4.43,0,6.78-3.39,5.22-7.53Z" transform="translate(0 0)"/><path class="cls-1" d="M204.86,56.35c-3.13-3.14-7.18-2.41-9,1.62L185.19,81.44a10.26,10.26,0,0,0,3.2,12L199,103a12.66,12.66,0,0,0,12.89,3.18l23.46-8.8c4.14-1.56,5-5.4,1.86-8.54Z" transform="translate(0 0)"/><path class="cls-1" d="M148.5,103.06a45.44,45.44,0,1,0,45.44,45.44A45.5,45.5,0,0,0,148.5,103.06Zm27.11,34.59a11.49,11.49,0,1,1,3.37-8.13A11.6,11.6,0,0,1,175.61,137.65Z" transform="translate(0 0)"/><path class="cls-1" d="M20.82,117.53a13.63,13.63,0,0,0-7.33-11.38l-6.12-2.78c-4-1.83-7.33.3-7.33,4.72l0,82c0,4.43,3.39,6.78,7.53,5.22l5.75-2.15a12.52,12.52,0,0,0,7.54-10.88Z" transform="translate(0 0)"/><path class="cls-1" d="M127.07,75.11A9.69,9.69,0,0,0,137.78,81a56.68,56.68,0,0,1,10.72-.91h3.95c4.2.55,9.14-2.3,11-6.33L173.93,50.6c1.83-4-.3-7.33-4.72-7.33h-46c-4.43,0-6.78,3.39-5.23,7.54Z" transform="translate(0 0)"/><path class="cls-1" d="M215.54,185.22a10.28,10.28,0,0,0-12,3.2l-9.57,10.64a12.62,12.62,0,0,0-3.19,12.88l8.86,23.61c1.55,4.15,5.38,5,8.51,1.84l32.38-32.55c3.13-3.14,2.38-7.2-1.65-9Z" transform="translate(0 0)"/><path class="cls-1" d="M111.76,215.53a10.28,10.28,0,0,0-3.2-12L98,194a12.63,12.63,0,0,0-12.89-3.19l-23.46,8.8c-4.15,1.56-5,5.4-1.86,8.54L92.1,240.61c3.12,3.14,7.18,2.41,9-1.62Z" transform="translate(0 0)"/><path class="cls-1" d="M275.85,212.62a12.47,12.47,0,0,0-13,2.37L217,261.07a13.7,13.7,0,0,0-2.85,13.24l2.2,5.86c1.55,4.14,5.39,5,8.52,1.84l57.95-57.95c3.14-3.13,2.4-7.19-1.63-9Z" transform="translate(0 0)"/><path class="cls-1" d="M193.31,284.27a12.53,12.53,0,0,0-10.88-7.54H117.28a13.63,13.63,0,0,0-11.38,7.33l-2.55,5.61c-1.83,4,.29,7.33,4.72,7.33l82,0c4.42,0,6.77-3.4,5.22-7.54Z" transform="translate(0 0)"/><path class="cls-1" d="M84.28,276a12.58,12.58,0,0,0-2.35-13L36.12,217a13.59,13.59,0,0,0-13.22-2.88l-6.2,2.33c-4.15,1.55-5,5.39-1.85,8.52l58,58c3.13,3.13,7.19,2.39,9-1.64Z" transform="translate(0 0)"/><path class="cls-1" d="M283.72,103.81a12.52,12.52,0,0,0-7.54,10.88v64.76a13.65,13.65,0,0,0,7.33,11.38l6.11,2.77c4,1.83,7.34-.29,7.34-4.72l0-82c0-4.43-3.39-6.78-7.54-5.23Z" transform="translate(0 0)"/><path class="cls-1" d="M103.66,12.73a12.55,12.55,0,0,0,10.88,7.54h65.12A13.65,13.65,0,0,0,191,12.94l2.55-5.61c1.83-4-.3-7.33-4.73-7.33L107,0c-4.43,0-6.78,3.4-5.23,7.54Z" transform="translate(0 0)"/><path class="cls-1" d="M21.16,84.37a12.49,12.49,0,0,0,13-2.38L80,36A13.66,13.66,0,0,0,82.83,22.7l-2.19-5.85c-1.56-4.15-5.39-5-8.52-1.84L14.2,72.93c-3.13,3.13-2.4,7.19,1.64,9Z" transform="translate(0 0)"/><path class="cls-1" d="M224.1,14c-3.14-3.13-7.2-2.4-9,1.64l-2.39,5.27A12.56,12.56,0,0,0,215,34l45.81,46a13.61,13.61,0,0,0,13.22,2.88l6.2-2.33c4.15-1.56,5-5.39,1.84-8.52Z" transform="translate(0 0)"/><path class="cls-1" d="M221.88,127A9.66,9.66,0,0,0,216,137.73a56.86,56.86,0,0,1,.92,10.77v4c-.55,4.21,2.29,9.16,6.32,11l22.59,10.26c4,1.83,7.33-.29,7.33-4.72V123.33c0-4.43-3.4-6.78-7.54-5.23Z" transform="translate(0 0)"/></svg>