<?xml version="1.0" encoding="iso-8859-1"?>
<!-- Generator: Adobe Illustrator 18.0.0, SVG Export Plug-In . SVG Version: 6.00 Build 0)  -->
<!DOCTYPE svg PUBLIC "-//W3C//DTD SVG 1.1//EN" "http://www.w3.org/Graphics/SVG/1.1/DTD/svg11.dtd">
<svg version="1.1" id="Capa_1" xmlns="http://www.w3.org/2000/svg" xmlns:xlink="http://www.w3.org/1999/xlink" x="0px" y="0px"
	 viewBox="0 0 29.923 29.923" style="enable-background:new 0 0 29.923 29.923;" xml:space="preserve">
<g>
	<path d="M22.912,5.312c-0.394-0.388-1.027-0.383-1.414,0.011l-2.954,3c-0.388,0.394-0.383,1.027,0.011,1.414
		c0.195,0.192,0.448,0.288,0.702,0.288c0.258,0,0.517-0.1,0.712-0.298l2.954-3C23.31,6.333,23.305,5.699,22.912,5.312z"/>
	<path d="M22.912,9.312c-0.394-0.388-1.027-0.383-1.414,0.011l-2.954,3c-0.388,0.394-0.383,1.027,0.011,1.414
		c0.195,0.192,0.448,0.288,0.702,0.288c0.258,0,0.517-0.1,0.712-0.298l2.954-3C23.31,10.333,23.305,9.699,22.912,9.312z"/>
	<path d="M21.498,13.323l-2.954,3c-0.388,0.394-0.383,1.027,0.011,1.414c0.195,0.192,0.448,0.288,0.702,0.288
		c0.258,0,0.517-0.1,0.712-0.298l2.954-3c0.388-0.394,0.383-1.027-0.011-1.414C22.518,12.924,21.885,12.929,21.498,13.323z"/>
	<path d="M22.912,17.312c-0.394-0.388-1.027-0.383-1.414,0.011l-2.954,3c-0.388,0.394-0.383,1.027,0.011,1.414
		c0.195,0.192,0.448,0.288,0.702,0.288c0.258,0,0.517-0.1,0.712-0.298l2.954-3C23.31,18.333,23.305,17.699,22.912,17.312z"/>
	<path d="M23.151,20.762c-0.513-0.198-1.094,0.057-1.293,0.572l-1.16,3c-0.199,0.515,0.057,1.094,0.572,1.293
		c0.119,0.046,0.241,0.068,0.361,0.068c0.401,0,0.779-0.243,0.933-0.64l1.16-3C23.922,21.541,23.666,20.961,23.151,20.762z"/>
	<path d="M24.09,3.441c-0.276,0-0.5,0.224-0.5,0.5v15.5c0,0.276,0.224,0.5,0.5,0.5c0.276,0,0.5-0.224,0.5-0.5v-15.5
		C24.59,3.665,24.366,3.441,24.09,3.441z"/>
	<path d="M28.211,9.726c0.196,0.199,0.454,0.298,0.712,0.298c0.253,0,0.507-0.096,0.702-0.288c0.394-0.387,0.398-1.021,0.011-1.414
		l-2.954-3c-0.388-0.393-1.021-0.398-1.414-0.011c-0.393,0.387-0.398,1.02-0.011,1.414L28.211,9.726z"/>
	<path d="M26.681,9.323c-0.388-0.394-1.021-0.398-1.414-0.011c-0.393,0.387-0.398,1.021-0.011,1.414l2.954,3
		c0.196,0.199,0.454,0.298,0.712,0.298c0.253,0,0.507-0.096,0.702-0.288c0.394-0.387,0.398-1.021,0.011-1.414L26.681,9.323z"/>
	<path d="M26.681,13.323c-0.388-0.394-1.021-0.398-1.414-0.011c-0.393,0.387-0.398,1.021-0.011,1.414l2.954,3
		c0.196,0.199,0.454,0.298,0.712,0.298c0.253,0,0.507-0.096,0.702-0.288c0.394-0.387,0.398-1.021,0.011-1.414L26.681,13.323z"/>
	<path d="M26.681,17.323c-0.388-0.394-1.021-0.398-1.414-0.011c-0.393,0.387-0.398,1.021-0.011,1.414l2.954,3
		c0.196,0.199,0.454,0.298,0.712,0.298c0.253,0,0.507-0.096,0.702-0.288c0.394-0.387,0.398-1.021,0.011-1.414L26.681,17.323z"/>
	<path d="M26.322,21.334c-0.199-0.515-0.777-0.77-1.293-0.572c-0.515,0.199-0.771,0.778-0.572,1.293l1.16,3
		c0.153,0.396,0.532,0.64,0.933,0.64c0.12,0,0.242-0.022,0.361-0.068c0.515-0.199,0.771-0.778,0.572-1.293L26.322,21.334z"/>
	<path d="M24.09,24.729c-0.552,0-1,0.448-1,1v2.792c0,0.552,0.448,1,1,1c0.552,0,1-0.448,1-1v-2.792
		C25.09,25.177,24.642,24.729,24.09,24.729z"/>
	<path d="M24.648,0.779c-0.141-0.319-0.514-0.464-0.833-0.323L0.896,10.548c-0.03,0.014-0.064,0.03-0.094,0.045
		c-0.733,0.386-1.016,1.293-0.63,2.027c0.386,0.734,1.293,1.016,2.027,0.63L24.364,1.593C24.654,1.439,24.783,1.085,24.648,0.779z"
		/>
</g>
<g>
</g>
<g>
</g>
<g>
</g>
<g>
</g>
<g>
</g>
<g>
</g>
<g>
</g>
<g>
</g>
<g>
</g>
<g>
</g>
<g>
</g>
<g>
</g>
<g>
</g>
<g>
</g>
<g>
</g>
</svg>
