<svg id="Capa_1" data-name="Capa 1" xmlns="http://www.w3.org/2000/svg" viewBox="0 0 297 218.74"><defs><style>.cls-1{fill:#fff0d9;}</style></defs><path class="cls-1" d="M148.5,87.69c25.48,0,50.51-8.47,71.33-16.07A62.28,62.28,0,0,0,203.17,55C188.43,44.76,169,39.13,148.5,39.13S108.57,44.76,93.83,55A62.14,62.14,0,0,0,77.17,71.62C98,79.22,123,87.69,148.5,87.69Z" transform="translate(0 -39.13)"/><path class="cls-1" d="M66.39,84.77c-16.73-6.15-29.94-11-40.87-11C16,73.76,0,77.83,0,105.11c0,26.72,4.42,65.17,25.49,96.67,24.9,37.22,66.29,56.09,123,56.09s98.11-18.87,123-56.09c21.07-31.5,25.49-69.95,25.49-96.67,0-27.28-16-31.35-25.52-31.35-10.93,0-24.14,4.86-40.87,11-23,8.45-51.6,19-82.11,19S89.38,93.22,66.39,84.77Z" transform="translate(0 -39.13)"/></svg>