<svg id="Capa_1" data-name="Capa 1" xmlns="http://www.w3.org/2000/svg" viewBox="0 0 31.51 39.42"><defs><style>.cls-1{fill:#fff0d9;}</style></defs><path class="cls-1" d="M30,13a1.84,1.84,0,0,0,2.82-1.58V10.11A5,5,0,0,1,33,8.86c0-.22.1-.41.12-.58l0-.11a2.32,2.32,0,0,1,.08-.44.35.35,0,0,1,.06-.09l.21.11a2.25,2.25,0,0,0,1,.34,1.07,1.07,0,0,0,.76-.3.45.45,0,0,0,.16-.36V5.67a.49.49,0,0,0-.16-.37,1.12,1.12,0,0,0-.76-.3,2.1,2.1,0,0,0-1,.35l-.22.11,0-.1a1.57,1.57,0,0,1-.08-.43l0-.12A4.17,4.17,0,0,0,33,4.23a4.49,4.49,0,0,1-.21-1.14V1.85a1.85,1.85,0,0,0-3.66-.38c-.32,0-.85,0-1.54,0H11.72c-.69,0-1.22,0-1.54,0a1.85,1.85,0,0,0-3.66.38V3.1a7.09,7.09,0,0,1-.17,1.26,5,5,0,0,0-.09.5v.07a1.54,1.54,0,0,1-.09.43l0,.1L5.9,5.35a2.18,2.18,0,0,0-1-.35,1.16,1.16,0,0,0-.76.3A.52.52,0,0,0,4,5.67V7.43a.48.48,0,0,0,.16.36,1.09,1.09,0,0,0,.76.3,2.29,2.29,0,0,0,1-.34l.22-.12a.49.49,0,0,0,0,.1,1.62,1.62,0,0,1,.09.44v.07q0,.18.09.48a9.32,9.32,0,0,1,.15,1.06c0,.11,0,.22,0,.32v1.35A1.84,1.84,0,0,0,7.36,13a1.73,1.73,0,0,0,.92.29h.09a1.87,1.87,0,0,0,1.29-.52c0,.16,0,.34,0,.53V26.64a1.89,1.89,0,0,0-1.3-.53H8.29a1.86,1.86,0,0,0-.93.3A1.84,1.84,0,0,0,6.52,28v1.31c0,.09,0,.19,0,.28a7.9,7.9,0,0,1-.16,1.06,4.84,4.84,0,0,0-.08.49v.07a2.07,2.07,0,0,1-.08.43.29.29,0,0,1-.06.1L5.9,31.6a2.14,2.14,0,0,0-1-.35,1.16,1.16,0,0,0-.77.3.52.52,0,0,0-.16.37v1.75a.51.51,0,0,0,.16.37,1.11,1.11,0,0,0,.77.3,2.25,2.25,0,0,0,1-.34l.22-.12a.29.29,0,0,0,0,.1,2.18,2.18,0,0,1,.08.44v.07c0,.12,0,.29.09.49a7.69,7.69,0,0,1,.17,1.3v1.28a1.86,1.86,0,1,0,3.71,0V36c0-.47.44-.87,1-1a1.78,1.78,0,0,1,.47-.06H27.61a1.84,1.84,0,0,1,.47.06c.59.15,1,.55,1,1v1.58a1.86,1.86,0,1,0,3.71,0V36.29a4.85,4.85,0,0,1,.2-1.17,4.62,4.62,0,0,0,.13-.59l0-.12a2.07,2.07,0,0,1,.08-.43.35.35,0,0,1,.06-.09l.21.11a2.25,2.25,0,0,0,1,.34,1.07,1.07,0,0,0,.76-.3.46.46,0,0,0,.16-.36V31.92a.49.49,0,0,0-.16-.37,1.12,1.12,0,0,0-.76-.3,2.14,2.14,0,0,0-1,.35l-.22.11a.79.79,0,0,0,0-.1,1.57,1.57,0,0,1-.08-.43l0-.12a4.41,4.41,0,0,0-.13-.57,5.27,5.27,0,0,1-.21-1.22V28A1.85,1.85,0,0,0,31,26.11a1.8,1.8,0,0,0-1,.28V13ZM29.1,32.68a3.07,3.07,0,0,1-1.5.29H11.72a3.51,3.51,0,0,1-1.32-.21,3.78,3.78,0,0,1,1.32-.2H29.1ZM11.6,29.13V13.34a1.5,1.5,0,0,1,1.5-1.5H26.56a1.5,1.5,0,0,1,1.5,1.5V29.13a1.34,1.34,0,0,1-.07.4.24.24,0,0,1,0,.08,1.49,1.49,0,0,1-1.31,1H13.1a1.42,1.42,0,0,1-.36-.05,1.5,1.5,0,0,1-1.05-.95.57.57,0,0,1,0-.14A1.49,1.49,0,0,1,11.6,29.13ZM29.1,7V8.38a1.48,1.48,0,0,1-1,1.41,1.28,1.28,0,0,1-.48.09H11.72a1.59,1.59,0,0,1-.65-.15,1.52,1.52,0,0,1-.85-1.35V4.93a1.51,1.51,0,0,1,.09-.48,1.49,1.49,0,0,1,1.41-1H27.6a1.52,1.52,0,0,1,1.5,1.51Z" transform="translate(-3.95)"/><path class="cls-1" d="M12.66,27.84a14.37,14.37,0,0,0,1.86-1.6,19.35,19.35,0,0,0,1.7-1.93c.28-.39.58-.79.84-1.23s.53-.89.77-1.36l.18-.39c.23-.48,1.21-.37,1.63-.35a11.7,11.7,0,0,0,2.05,0c.81-.11,1.42-.27,1.38-.23L23,20.8c-.17.22-.4.43-.62.69s-.43.53-.7.8-.48.6-.76.88l-.05.06a4.34,4.34,0,0,1-.95-.48L19,22.21l0,0a.11.11,0,0,0-.08,0l-.89.14a.07.07,0,0,0-.06.07.09.09,0,0,0,.06.11l.45.07a1.65,1.65,0,0,0,.38,0s.33.37.81.85l.28.29c.16.15.27.31.24.35l-.06.06a13.69,13.69,0,0,1-6.85,4.35s0,0,0,.06,0,0,0,0a.09.09,0,0,0,.08.09s.22,0,.61,0c.19,0,.37-.06.55-.09a15.84,15.84,0,0,0,6.66-3.13l.17-.12c.08-.08.35,0,.59.27l.43.41c.28.29.56.6.86.87a5.51,5.51,0,0,0,1,.69,7.69,7.69,0,0,0,1.08.52c.18.07.38.13.57.19a4.13,4.13,0,0,0,.63.13h0a.11.11,0,0,0,.05-.14c-.1-.22-.21-.42-.32-.61s-.24-.38-.37-.55a8.31,8.31,0,0,0-.8-1,6.78,6.78,0,0,0-.91-.79c-.33-.22-.69-.4-1-.61l-.38-.23c-.21-.14-.32-.31-.26-.39l.1-.15A9,9,0,0,0,24,20.56a.43.43,0,0,1,0-.11.21.21,0,0,1,.1-.15.2.2,0,0,0,.08,0l.19-.08c.11-.06.1-.15,0-.19l-.19-.08-.05,0a.15.15,0,0,1-.05-.06v0a.09.09,0,0,0-.14,0l-.38-.11a3.29,3.29,0,0,0-.37-.1,11.36,11.36,0,0,0-3-.32l-.7,0c-.38,0-.65-.07-.6-.24s.05-.22.08-.33l0-.18c0-.11.32-.2.7-.22l.68,0a29.54,29.54,0,0,0,4.8-.73c.65-.16,1.19-.33,1.57-.46l.3-.1c.16-.06.16-.16,0-.19l-.31-.07c-.39-.07-.94-.15-1.61-.22a28.58,28.58,0,0,0-4.84,0l-.59.05c-.33,0-.61-.11-.63-.31s0-.25,0-.37a8.52,8.52,0,0,0-.26-1.1,6.84,6.84,0,0,0-.32-.81,6.06,6.06,0,0,0-.36-.64.09.09,0,0,0-.06,0,.09.09,0,0,0-.09.09s0,.28-.05.74c0,.23,0,.5,0,.81s0,.64-.1,1l-.06.44c0,.24-.54.51-1.13.63-.38.07-.74.15-1.06.23-.65.16-1.2.33-1.57.46l-.3.1c-.17.06-.16.15,0,.19l.31.06c.39.08.94.16,1.61.23l.89.07c.5,0,.85.33.78.69s-.08.44-.13.66c0,0,0,0,0,0-.05.19-.86.35-1,.44s-.11.14,0,.19.82.18.72.51l-.08.21c-.17.46-.36.91-.57,1.34s-.42.85-.64,1.26c-.46.79-.93,1.52-1.36,2.11a19.61,19.61,0,0,1-1.54,1.9.1.1,0,0,0,0,.12A.08.08,0,0,0,12.66,27.84Z" transform="translate(-3.95)"/></svg>