<svg id="Capa_1" data-name="Capa 1" xmlns="http://www.w3.org/2000/svg" viewBox="0 0 18.09 30.5"><defs><style>.cls-1{fill:#fff0d9;}</style></defs><path class="cls-1" d="M23.17,20.62V11.25a8.34,8.34,0,0,0,.5-2.83,8.42,8.42,0,0,0-16.84,0,8.59,8.59,0,0,0,.5,2.83v9.37a2.13,2.13,0,1,0,2,0V14.4a8.5,8.5,0,0,0,3.93,2.19l-.7,11a2.7,2.7,0,0,0,4.66,2,2.72,2.72,0,0,0,.73-2l-.7-11a8.52,8.52,0,0,0,3.92-2.19v6.22a2.13,2.13,0,1,0,2,0Zm-7.92-6.78a5.42,5.42,0,1,1,5.42-5.42A5.43,5.43,0,0,1,15.25,13.84Z" transform="translate(-6.21)"/><circle class="cls-1" cx="9.04" cy="8.54" r="3.53"/></svg>