<svg id="Layer_1" data-name="Layer 1" xmlns="http://www.w3.org/2000/svg" viewBox="0 0 512 512"><defs><style>.cls-1{fill:#fff0d9;}</style></defs><path class="cls-1" d="M448.26,319.74a63.74,63.74,0,0,0,0-127.48H415.87V127.48h32.39a63.74,63.74,0,1,0-63.74-63.74V96.13H319.74V63.74a63.74,63.74,0,0,0-127.48,0V96.13H127.48V63.74a63.74,63.74,0,1,0-63.74,63.74H96.13v64.78H63.74a63.74,63.74,0,0,0,0,127.48H96.13v64.78H63.74a63.74,63.74,0,1,0,63.74,63.74V415.87h64.78v32.39a63.74,63.74,0,0,0,127.48,0V415.87h64.78v32.39a63.74,63.74,0,1,0,63.74-63.74H415.87V319.74Zm-32.39-256a32.39,32.39,0,1,1,32.39,32.39H415.87Zm0,159.87h32.39a32.39,32.39,0,0,1,0,64.78H415.87ZM96.13,448.26a32.39,32.39,0,1,1-32.39-32.39H96.13Zm0-159.87H63.74a32.39,32.39,0,0,1,0-64.78H96.13Zm0-192.26H63.74A32.39,32.39,0,1,1,96.13,63.74Zm96.13,288.39H127.48V319.74h64.78Zm0-96.13H127.48V223.61h64.78Zm0-96.13H127.48V127.48h64.78Zm96.13,256a32.39,32.39,0,0,1-64.78,0V415.87h64.78Zm0-63.74H223.61V319.74h64.78Zm0-96.13H223.61V223.61h64.78Zm0-96.13H223.61V127.48h64.78Zm0-96.13H223.61V63.74a32.39,32.39,0,0,1,64.78,0Zm96.13,288.39H319.74V319.74h64.78Zm0-96.13H319.74V223.61h64.78Zm0-96.13H319.74V127.48h64.78Zm63.74,223.61a32.39,32.39,0,1,1-32.39,32.39V415.87Z"/></svg>