<?xml version="1.0" encoding="iso-8859-1"?>
<!-- Generator: Adobe Illustrator 18.0.0, SVG Export Plug-In . SVG Version: 6.00 Build 0)  -->
<!DOCTYPE svg PUBLIC "-//W3C//DTD SVG 1.1//EN" "http://www.w3.org/Graphics/SVG/1.1/DTD/svg11.dtd">
<svg version="1.1" id="Capa_1" xmlns="http://www.w3.org/2000/svg" xmlns:xlink="http://www.w3.org/1999/xlink" x="0px" y="0px"
	 viewBox="0 0 296.999 296.999" style="enable-background:new 0 0 296.999 296.999;" xml:space="preserve">
<path d="M295.346,112.9c-32.778-49.479-87.675-79.018-146.848-79.018c-59.173,0-114.069,29.539-146.846,79.018
	c-3.013,4.549-1.793,10.676,2.733,13.725l130.291,87.727l-21.182,14.527c-4.446,3.049-5.647,9.086-2.71,13.605
	c8.401,12.92,22.499,20.633,37.714,20.633s29.313-7.713,37.714-20.633c2.938-4.52,1.736-10.557-2.71-13.605l-21.182-14.527
	l130.291-87.727C297.14,123.576,298.359,117.447,295.346,112.9z M174.006,182.533c-0.343-0.387-0.7-0.758-1.059-1.127l15.013-29.275
	c4.711,3.529,8.979,7.711,12.671,12.477L174.006,182.533z M136.409,191.568c3.298-2.928,7.546-4.584,12.09-4.584
	c4.546,0,8.795,1.656,12.093,4.584l-12.092,8.141L136.409,191.568z M159.462,172.877c-0.987-0.334-1.997-0.605-3.018-0.848v-32.551
	c6.157,0.742,12.115,2.342,17.726,4.717L159.462,172.877z M140.552,172.031c-1.02,0.24-2.029,0.514-3.016,0.846l-14.708-28.682
	c5.61-2.375,11.567-3.975,17.724-4.717V172.031z M109.039,152.13l15.013,29.277c-0.357,0.369-0.716,0.74-1.059,1.127l-26.629-17.93
	C100.059,159.841,104.327,155.66,109.039,152.13z M148.499,243.252c-5.163,0-10.106-1.613-14.248-4.52l14.248-9.771l14.248,9.771
	C158.606,241.638,153.663,243.252,148.499,243.252z M217.136,153.494c-16.229-21.623-41.45-34.363-68.638-34.363
	c-27.183,0-52.405,12.74-68.64,34.361l-55.947-37.67c29.512-39.045,75.385-62.074,124.587-62.074
	c49.201,0,95.075,23.029,124.588,62.074L217.136,153.494z"/>
<g>
</g>
<g>
</g>
<g>
</g>
<g>
</g>
<g>
</g>
<g>
</g>
<g>
</g>
<g>
</g>
<g>
</g>
<g>
</g>
<g>
</g>
<g>
</g>
<g>
</g>
<g>
</g>
<g>
</g>
</svg>
