<?xml version="1.0" encoding="iso-8859-1"?>
<!-- Generator: Adobe Illustrator 18.0.0, SVG Export Plug-In . SVG Version: 6.00 Build 0)  -->
<!DOCTYPE svg PUBLIC "-//W3C//DTD SVG 1.1//EN" "http://www.w3.org/Graphics/SVG/1.1/DTD/svg11.dtd">
<svg version="1.1" id="Capa_1" xmlns="http://www.w3.org/2000/svg" xmlns:xlink="http://www.w3.org/1999/xlink" x="0px" y="0px"
	 viewBox="0 0 30.503 30.503" style="enable-background:new 0 0 30.503 30.503;" xml:space="preserve">
<g>
	<path d="M23.17,20.625v-9.378c0.317-0.886,0.5-1.836,0.5-2.83C23.67,3.776,19.893,0,15.252,0S6.834,3.776,6.834,8.417
		c0,0.994,0.183,1.944,0.5,2.83v9.378c-0.668,0.359-1.127,1.056-1.127,1.867c0,1.175,0.952,2.127,2.127,2.127
		c1.176,0,2.128-0.953,2.128-2.127c0-0.812-0.46-1.508-1.128-1.867v-6.229c1.067,1.057,2.418,1.823,3.923,2.19l-0.698,11.048
		c-0.047,0.744,0.216,1.474,0.726,2.017c0.51,0.543,1.223,0.852,1.968,0.852c0.745,0,1.458-0.308,1.968-0.852
		c0.51-0.543,0.772-1.274,0.726-2.017l-0.698-11.048c1.505-0.368,2.855-1.134,3.923-2.19v6.229
		c-0.668,0.359-1.128,1.056-1.128,1.867c0,1.175,0.952,2.127,2.128,2.127c1.175,0,2.127-0.953,2.127-2.127
		C24.297,21.681,23.838,20.984,23.17,20.625z M15.252,13.835c-2.987,0-5.418-2.431-5.418-5.418S12.264,3,15.252,3
		s5.418,2.43,5.418,5.417S18.239,13.835,15.252,13.835z"/>
	<circle cx="15.252" cy="8.536" r="3.532"/>
</g>
<g>
</g>
<g>
</g>
<g>
</g>
<g>
</g>
<g>
</g>
<g>
</g>
<g>
</g>
<g>
</g>
<g>
</g>
<g>
</g>
<g>
</g>
<g>
</g>
<g>
</g>
<g>
</g>
<g>
</g>
</svg>
