<?xml version="1.0" encoding="utf-8"?>
<!-- Generator: Adobe Illustrator 24.2.3, SVG Export Plug-In . SVG Version: 6.00 Build 0)  -->
<svg version="1.1" id="Capa_1" xmlns="http://www.w3.org/2000/svg" xmlns:xlink="http://www.w3.org/1999/xlink" x="0px" y="0px"
	 viewBox="0 0 29.5 29.5" style="enable-background:new 0 0 29.5 29.5;" xml:space="preserve">
<g>
	<path d="M5.2,14h19.2c0.4,0,0.8-0.3,0.8-0.8c0-4.4-2.8-8.4-7-9.8c-0.2-0.1-0.5,0-0.7,0.1c-0.2,0.1-0.3,0.4-0.3,0.6v4.9h-4.7V4.2
		c0-0.2-0.1-0.5-0.3-0.6c-0.2-0.1-0.4-0.2-0.7-0.1c-4.2,1.4-7,5.4-7,9.8C4.4,13.7,4.8,14,5.2,14z M10.9,5.3v3.8H9
		c-0.4,0-0.8,0.3-0.8,0.8s0.3,0.8,0.8,0.8h11.6c0.4,0,0.8-0.3,0.8-0.8S21,9.1,20.5,9.1h-2V5.3c2.8,1.3,4.7,4.1,5,7.2H5.9
		C6.2,9.4,8.1,6.7,10.9,5.3z"/>
	<path d="M24.3,15.5H5.2c-0.4,0-0.8,0.3-0.8,0.8c0,4.4,2.8,8.4,7,9.8c0.1,0,0.2,0,0.2,0c0.2,0,0.3,0,0.4-0.1
		c0.2-0.1,0.3-0.4,0.3-0.6v-4.9h4.7v4.9c0,0.2,0.1,0.5,0.3,0.6s0.4,0.2,0.7,0.1c4.2-1.4,7-5.4,7-9.8C25.1,15.8,24.7,15.5,24.3,15.5z
		 M18.6,24.2v-3.8h2c0.4,0,0.8-0.3,0.8-0.8s-0.3-0.8-0.8-0.8H9c-0.4,0-0.8,0.3-0.8,0.8s0.3,0.8,0.8,0.8h2v3.8
		c-2.8-1.4-4.7-4.1-5-7.2h17.6C23.3,20.1,21.4,22.8,18.6,24.2z"/>
	<path d="M14.7,0C7.2,0,1,6.6,1,14.8s6.2,14.8,13.7,14.8c7.6,0,13.7-6.6,13.7-14.8S22.3,0,14.7,0z M14.7,27.5
		C8.3,27.5,3,21.8,3,14.7S8.3,2,14.7,2s11.7,5.7,11.7,12.8S21.2,27.5,14.7,27.5z"/>
</g>
</svg>
