<?xml version="1.0" encoding="iso-8859-1"?>
<!-- Generator: Adobe Illustrator 18.0.0, SVG Export Plug-In . SVG Version: 6.00 Build 0)  -->
<!DOCTYPE svg PUBLIC "-//W3C//DTD SVG 1.1//EN" "http://www.w3.org/Graphics/SVG/1.1/DTD/svg11.dtd">
<svg version="1.1" id="Capa_1" xmlns="http://www.w3.org/2000/svg" xmlns:xlink="http://www.w3.org/1999/xlink" x="0px" y="0px"
	 viewBox="0 0 29.5 29.5" style="enable-background:new 0 0 29.5 29.5;" xml:space="preserve">
<path d="M29.423,13.244C28.667,5.815,22.375,0,14.75,0l0,0C14.75,0,14.75,0,14.75,0C7.126,0,0.834,5.815,0.077,13.244
	c-0.051,0.495-0.076,0.998-0.076,1.506s0.025,1.011,0.076,1.506C0.834,23.684,7.126,29.5,14.75,29.5c0,0,0,0,0.001,0l0,0
	c7.625,0,13.916-5.816,14.673-13.245c0.05-0.495,0.076-0.998,0.076-1.506S29.473,13.739,29.423,13.244z M6.696,20.959h2v3.842
	c-0.721-0.436-1.391-0.944-2-1.52V20.959z M8.696,13.75h-2v-3.184h2V13.75z M8.696,15.75v3.209h-2V15.75H8.696z M8.696,8.566h-2
	V6.218c0.609-0.575,1.279-1.083,2-1.519V8.566z M3.24,12.385c0.129-0.628,0.319-1.232,0.544-1.819h0.912v3.184H3.051
	C3.09,13.288,3.148,12.831,3.24,12.385z M4.696,15.75v3.209H3.793c-0.23-0.595-0.423-1.208-0.554-1.844
	c-0.092-0.446-0.149-0.902-0.188-1.365H4.696z M10.696,25.764V3.736C11.961,3.269,13.324,3,14.75,3c1.426,0,2.788,0.269,4.054,0.736
	v22.027c-1.266,0.468-2.628,0.736-4.054,0.736C13.324,26.5,11.961,26.231,10.696,25.764z M22.804,23.281
	c-0.609,0.576-1.279,1.083-2,1.52v-3.842h2V23.281z M22.804,8.566h-2V4.699c0.721,0.436,1.391,0.944,2,1.519V8.566z M20.804,18.959
	V15.75h2v3.209H20.804z M20.804,13.75v-3.184h2v3.184H20.804z M24.804,10.566h0.912c0.225,0.587,0.415,1.191,0.544,1.819
	c0.092,0.446,0.149,0.903,0.188,1.365h-1.645V10.566z M26.26,17.115c-0.131,0.637-0.324,1.25-0.554,1.844h-0.902V15.75h1.645
	C26.41,16.212,26.352,16.669,26.26,17.115z"/>
<g>
</g>
<g>
</g>
<g>
</g>
<g>
</g>
<g>
</g>
<g>
</g>
<g>
</g>
<g>
</g>
<g>
</g>
<g>
</g>
<g>
</g>
<g>
</g>
<g>
</g>
<g>
</g>
<g>
</g>
</svg>
