<svg id="Capa_1" data-name="Capa 1" xmlns="http://www.w3.org/2000/svg" viewBox="0 0 274.97 297"><defs><style>.cls-1{fill:#fff0d9;}</style></defs><path class="cls-1" d="M78.31,129.5c0,31.4,16.71,58.52,40.75,70.95-8.06-18.69-12.19-44.9-12.19-70.95S111,77.24,119.06,58.55C95,71,78.31,98.1,78.31,129.5Z" transform="translate(-11.01)"/><path class="cls-1" d="M126.23,129.5c0,51.58,15.61,78.18,22.27,78.18s22.27-26.6,22.27-78.18S155.16,51.31,148.5,51.31,126.23,77.92,126.23,129.5Z" transform="translate(-11.01)"/><path class="cls-1" d="M218.7,129.5C218.7,98.09,202,71,177.94,58.55c8.06,18.69,12.19,44.9,12.19,71s-4.13,52.26-12.19,70.95C202,188,218.7,160.9,218.7,129.5Z" transform="translate(-11.01)"/><path class="cls-1" d="M190.13,9.68A9.68,9.68,0,0,0,180.45,0h-63.9a9.68,9.68,0,0,0-9.68,9.68V21.54h83.26Z" transform="translate(-11.01)"/><path class="cls-1" d="M106.87,249.32a9.68,9.68,0,0,0,9.68,9.68h7.08a25.1,25.1,0,0,0-.79,6.29v22a9.69,9.69,0,0,0,19.37,0v-22a6.29,6.29,0,1,1,12.58,0v22a9.69,9.69,0,0,0,19.37,0v-22a25.56,25.56,0,0,0-.78-6.29h7.07a9.69,9.69,0,0,0,9.69-9.68V237.46H106.87v11.86Z" transform="translate(-11.01)"/><path class="cls-1" d="M58.94,129.5c0-42.92,25.58-79.45,61-92.47H104.4C85.18,41.6,67.52,49.16,52.64,59.39,25.8,77.85,11,102.74,11,129.5s14.79,51.65,41.63,70.11C67.52,209.84,85.18,217.39,104.4,222H120C84.52,209,58.94,172.42,58.94,129.5Z" transform="translate(-11.01)"/><path class="cls-1" d="M244.36,59.39C229.48,49.16,211.82,41.6,192.6,37H177.05c35.43,13,61,49.55,61,92.47S212.48,209,177.05,222H192.6c19.22-4.56,36.88-12.12,51.76-22.35C271.2,181.15,286,156.25,286,129.5S271.2,77.85,244.36,59.39Z" transform="translate(-11.01)"/></svg>