<svg id="Capa_1" data-name="Capa 1" xmlns="http://www.w3.org/2000/svg" viewBox="0 0 29.92 29.12"><defs><style>.cls-1{fill:#fff0d9;}</style></defs><path class="cls-1" d="M22.91,5.31a1,1,0,0,0-1.41,0l-3,3a1,1,0,0,0,0,1.42,1,1,0,0,0,.7.28A1,1,0,0,0,20,9.73l3-3A1,1,0,0,0,22.91,5.31Z" transform="translate(0 -0.4)"/><path class="cls-1" d="M22.91,9.31a1,1,0,0,0-1.41,0l-3,3a1,1,0,0,0,0,1.42,1,1,0,0,0,.7.28,1,1,0,0,0,.71-.29l3-3A1,1,0,0,0,22.91,9.31Z" transform="translate(0 -0.4)"/><path class="cls-1" d="M21.5,13.32l-3,3a1,1,0,0,0,.72,1.7,1,1,0,0,0,.71-.29l3-3a1,1,0,1,0-1.42-1.41Z" transform="translate(0 -0.4)"/><path class="cls-1" d="M22.91,17.31a1,1,0,0,0-1.41,0l-3,3a1,1,0,0,0,0,1.42,1,1,0,0,0,.7.28,1,1,0,0,0,.71-.29l3-3A1,1,0,0,0,22.91,17.31Z" transform="translate(0 -0.4)"/><path class="cls-1" d="M23.15,20.76a1,1,0,0,0-1.29.57l-1.16,3a1,1,0,0,0,.57,1.3,1.13,1.13,0,0,0,.36.06,1,1,0,0,0,.93-.63l1.16-3A1,1,0,0,0,23.15,20.76Z" transform="translate(0 -0.4)"/><path class="cls-1" d="M24.09,3.44a.5.5,0,0,0-.5.5v15.5a.5.5,0,0,0,1,0V3.94A.5.5,0,0,0,24.09,3.44Z" transform="translate(0 -0.4)"/><path class="cls-1" d="M28.21,9.73a1,1,0,0,0,.71.29,1,1,0,0,0,.7-.28,1,1,0,0,0,0-1.42l-3-3a1,1,0,0,0-1.41,0,1,1,0,0,0,0,1.42Z" transform="translate(0 -0.4)"/><path class="cls-1" d="M26.68,9.32a1,1,0,1,0-1.42,1.41l2.95,3a1,1,0,0,0,1.41,0,1,1,0,0,0,0-1.42Z" transform="translate(0 -0.4)"/><path class="cls-1" d="M26.68,13.32a1,1,0,1,0-1.42,1.41l2.95,3a1,1,0,0,0,.71.29,1,1,0,0,0,.7-.28,1,1,0,0,0,0-1.42Z" transform="translate(0 -0.4)"/><path class="cls-1" d="M26.68,17.32a1,1,0,1,0-1.42,1.41l2.95,3a1,1,0,0,0,.71.29,1,1,0,0,0,.7-.28,1,1,0,0,0,0-1.42Z" transform="translate(0 -0.4)"/><path class="cls-1" d="M26.32,21.33a1,1,0,0,0-1.86.72l1.16,3a1,1,0,0,0,.93.64,1.13,1.13,0,0,0,.36-.06,1,1,0,0,0,.57-1.3Z" transform="translate(0 -0.4)"/><path class="cls-1" d="M24.09,24.73a1,1,0,0,0-1,1v2.79a1,1,0,0,0,2,0V25.73A1,1,0,0,0,24.09,24.73Z" transform="translate(0 -0.4)"/><path class="cls-1" d="M24.65.78a.62.62,0,0,0-.83-.32L.9,10.55l-.1,0a1.5,1.5,0,0,0,1.4,2.66L24.36,1.59A.63.63,0,0,0,24.65.78Z" transform="translate(0 -0.4)"/></svg>