<svg id="Capa_1" data-name="Capa 1" xmlns="http://www.w3.org/2000/svg" viewBox="0 0 27.48 29.5"><defs><style>.cls-1{fill:#fff0d9;}</style></defs><path class="cls-1" d="M5.17,14H24.33a.74.74,0,0,0,.75-.75,10.31,10.31,0,0,0-7-9.77.73.73,0,0,0-.67.1.74.74,0,0,0-.32.61v4.9H12.42V4.22a.76.76,0,0,0-1-.71,10.31,10.31,0,0,0-7,9.77A.74.74,0,0,0,5.17,14Zm5.75-8.7V9.12H9a.75.75,0,0,0,0,1.5H20.54a.75.75,0,0,0,0-1.5h-2V5.33a8.82,8.82,0,0,1,5,7.2H6A8.82,8.82,0,0,1,10.92,5.33Z" transform="translate(-1.01)"/><path class="cls-1" d="M24.33,15.47H5.17a.74.74,0,0,0-.75.75,10.31,10.31,0,0,0,7,9.77.73.73,0,0,0,.25,0,.69.69,0,0,0,.43-.14.74.74,0,0,0,.32-.61v-4.9h4.66v4.9a.74.74,0,0,0,.32.61.73.73,0,0,0,.67.1,10.31,10.31,0,0,0,7-9.77A.74.74,0,0,0,24.33,15.47Zm-5.75,8.7V20.38h2a.75.75,0,0,0,0-1.5H9a.75.75,0,0,0,0,1.5h1.95v3.79A8.83,8.83,0,0,1,6,17h17.6A8.82,8.82,0,0,1,18.58,24.17Z" transform="translate(-1.01)"/><path class="cls-1" d="M14.75,0C7.17,0,1,6.62,1,14.75S7.17,29.5,14.75,29.5s13.74-6.62,13.74-14.75S22.33,0,14.75,0Zm0,27.5C8.28,27.5,3,21.78,3,14.75S8.28,2,14.75,2,26.49,7.72,26.49,14.75,21.22,27.5,14.75,27.5Z" transform="translate(-1.01)"/></svg>