<?xml version="1.0" encoding="utf-8"?>
<!-- Generator: Adobe Illustrator 24.2.3, SVG Export Plug-In . SVG Version: 6.00 Build 0)  -->
<svg version="1.1" id="Capa_1" xmlns="http://www.w3.org/2000/svg" xmlns:xlink="http://www.w3.org/1999/xlink" x="0px" y="0px"
	 viewBox="0 0 297 297" style="enable-background:new 0 0 297 297;" xml:space="preserve">
<style type="text/css">
	.st0{fill:#FFF0D9;}
</style>
<path class="st0" d="M295.3,112.9c-32.8-49.5-87.7-79-146.8-79S34.4,63.4,1.7,112.9c-3,4.5-1.8,10.7,2.7,13.7l130.3,87.7l-21.2,14.5
	c-4.4,3-5.6,9.1-2.7,13.6c8.4,12.9,22.5,20.6,37.7,20.6s29.3-7.7,37.7-20.6c2.9-4.5,1.7-10.6-2.7-13.6l-21.2-14.5l130.3-87.7
	C297.1,123.6,298.4,117.4,295.3,112.9z M174,182.5c-0.3-0.4-0.7-0.8-1.1-1.1l15-29.3c4.7,3.5,9,7.7,12.7,12.5L174,182.5z
	 M136.4,191.6c3.3-2.9,7.5-4.6,12.1-4.6c4.5,0,8.8,1.7,12.1,4.6l-12.1,8.1L136.4,191.6z M159.5,172.9c-1-0.3-2-0.6-3-0.8v-32.6
	c6.2,0.7,12.1,2.3,17.7,4.7L159.5,172.9z M140.6,172c-1,0.2-2,0.5-3,0.8l-14.7-28.7c5.6-2.4,11.6-4,17.7-4.7V172z M109,152.1
	l15,29.3c-0.4,0.4-0.7,0.7-1.1,1.1l-26.6-17.9C100.1,159.8,104.3,155.7,109,152.1z M148.5,243.3c-5.2,0-10.1-1.6-14.2-4.5l14.2-9.8
	l14.2,9.8C158.6,241.6,153.7,243.3,148.5,243.3z M217.1,153.5c-16.2-21.6-41.4-34.4-68.6-34.4c-27.2,0-52.4,12.7-68.6,34.4
	l-55.9-37.7c29.5-39,75.4-62.1,124.6-62.1c49.2,0,95.1,23,124.6,62.1L217.1,153.5z"/>
</svg>
