<svg id="Capa_1" data-name="Capa 1" xmlns="http://www.w3.org/2000/svg" viewBox="0 0 297 262.61"><defs><style>.cls-1{fill:#fff0d9;}</style></defs><path class="cls-1" d="M264.13,176.76a89.09,89.09,0,0,0,3.92-28.53c-.61-23-10.07-43.8-26.64-58.7C220.72,70.92,157,21.3,154.33,19.2a9.49,9.49,0,0,0-11.65,0C140,21.29,76.13,70.9,55.4,89.53c-23.25,20.88-31.88,55.62-22.52,87.21C27.74,182.1,0,212.5,0,244.4a9.36,9.36,0,0,0,3.75,7.49c.68.52,17.07,12.67,43.44,20.79A156.1,156.1,0,0,0,148.5,269.9a154.37,154.37,0,0,0,54.35,9.9,160.37,160.37,0,0,0,47-7.12c26.37-8.12,42.76-20.27,43.44-20.79A9.36,9.36,0,0,0,297,244.4C297,212.52,269.3,182.14,264.13,176.76Zm13,57.81a108.75,108.75,0,0,1-43.82-13.08,89,89,0,0,0,22.58-25.8C262.69,203.91,273.55,218.9,277.1,234.57Zm-209-130.92c16.65-15,63.85-52,80.41-64.93,16.53,12.94,63.61,50,80.24,64.92,12.65,11.38,19.88,27.4,20.35,45.1a71,71,0,0,1-20.72,51.85,68.79,68.79,0,0,1-97.29,0A9.49,9.49,0,0,0,117.65,214a88.65,88.65,0,0,0,7,6.31c-2,.22-4,.35-6,.4a69.27,69.27,0,0,1-65-42.13C42.53,152.08,48.46,121.26,68.08,103.65ZM63.79,221.53A107.82,107.82,0,0,1,19.9,234.58C23.43,219,34.23,204,41.06,195.78A87.66,87.66,0,0,0,63.79,221.53ZM53.38,255c-4.74-1.43-9.12-3-13.1-4.64a117.88,117.88,0,0,0,41.59-18.11,87,87,0,0,0,57.26,4.68v16.47C111.18,263.19,82.36,263.74,53.38,255Zm190.24,0c-29,8.77-57.8,8.22-85.75-1.6V237a88.23,88.23,0,0,0,57.34-4.7,117.7,117.7,0,0,0,41.51,18.06C252.74,252,248.36,253.54,243.62,255Z" transform="translate(0 -17.2)"/></svg>