<svg id="Capa_1" data-name="Capa 1" xmlns="http://www.w3.org/2000/svg" viewBox="0 0 29.5 29.5"><defs><style>.cls-1{fill:#fff0d9;}</style></defs><path class="cls-1" d="M29.42,13.24A14.76,14.76,0,0,0,14.75,0h0A14.77,14.77,0,0,0,.08,13.24a14.29,14.29,0,0,0,0,3A14.77,14.77,0,0,0,14.75,29.5h0A14.76,14.76,0,0,0,29.42,16.26a14.29,14.29,0,0,0,0-3ZM6.7,21h2V24.8a11.46,11.46,0,0,1-2-1.52Zm2-7.21h-2V10.57h2Zm0,2V19h-2V15.75Zm0-7.18h-2V6.22a11.85,11.85,0,0,1,2-1.52ZM3.24,12.39a12,12,0,0,1,.54-1.82H4.7v3.18H3.05A12,12,0,0,1,3.24,12.39ZM4.7,15.75V19H3.79a11.6,11.6,0,0,1-.55-1.85,12,12,0,0,1-.19-1.36Zm6,10v-22a11.45,11.45,0,0,1,8.1,0v22a11.45,11.45,0,0,1-8.1,0Zm12.1-2.48a11.1,11.1,0,0,1-2,1.52V21h2Zm0-14.71h-2V4.7a10.66,10.66,0,0,1,2,1.52ZM20.8,19V15.75h2V19Zm0-5.21V10.57h2v3.18Zm4-3.18h.92a10.94,10.94,0,0,1,.73,3.18H24.8V10.57Zm1.46,6.54A11.6,11.6,0,0,1,25.71,19H24.8V15.75h1.65A12,12,0,0,1,26.26,17.11Z" transform="translate(0)"/></svg>