<?xml version="1.0" encoding="iso-8859-1"?>
<!-- Generator: Adobe Illustrator 18.0.0, SVG Export Plug-In . SVG Version: 6.00 Build 0)  -->
<!DOCTYPE svg PUBLIC "-//W3C//DTD SVG 1.1//EN" "http://www.w3.org/Graphics/SVG/1.1/DTD/svg11.dtd">
<svg version="1.1" id="Capa_1" xmlns="http://www.w3.org/2000/svg" xmlns:xlink="http://www.w3.org/1999/xlink" x="0px" y="0px"
	 viewBox="0 0 297 297" style="enable-background:new 0 0 297 297;" xml:space="preserve">
<path d="M264.133,176.755c2.815-9.176,4.175-18.811,3.917-28.523c-0.607-22.958-10.067-43.804-26.637-58.702
	C220.716,70.92,157.029,21.3,154.329,19.196c-3.425-2.663-8.222-2.669-11.65-0.007c-2.706,2.104-66.545,51.712-87.281,70.338
	c-23.247,20.879-31.882,55.621-22.521,87.216C27.739,182.099,0,212.501,0,244.398c0,2.949,1.389,5.726,3.748,7.495
	c0.684,0.514,17.068,12.667,43.446,20.783c23.694,7.291,60.25,12.57,101.306-2.773c19.419,7.257,37.826,9.901,54.347,9.901
	c18.407-0.001,34.472-3.285,46.959-7.128c26.378-8.116,42.763-20.27,43.446-20.783c2.359-1.77,3.748-4.546,3.748-7.495
	C297,212.521,269.298,182.14,264.133,176.755z M277.096,234.572c-19.801-1.706-34.614-7.931-43.816-13.084
	c2.965-2.293,5.806-4.787,8.5-7.48c5.504-5.505,10.223-11.679,14.083-18.321C262.686,203.914,273.548,218.905,277.096,234.572z
	 M68.078,103.647c16.649-14.956,63.85-51.991,80.413-64.925c16.534,12.942,63.611,49.975,80.234,64.921
	c12.655,11.379,19.885,27.393,20.353,45.092c0.513,19.272-7.04,38.173-20.72,51.853c-12.993,12.993-30.27,20.15-48.645,20.15
	c-18.373,0-35.65-7.157-48.643-20.15c-1.853-1.853-4.281-2.778-6.71-2.778c-2.427,0-4.856,0.926-6.709,2.778
	c-3.705,3.706-3.705,9.714,0,13.42c2.243,2.244,4.586,4.35,7.019,6.315c-1.979,0.217-3.976,0.35-5.979,0.396
	c-28.083,0.638-54.208-16.281-65.049-42.133C42.527,152.08,48.462,121.264,68.078,103.647z M63.787,221.533
	c-9.138,5.148-23.914,11.359-43.884,13.047c3.531-15.608,14.325-30.548,21.155-38.798C46.904,205.865,54.681,214.584,63.787,221.533
	z M53.379,254.973c-4.74-1.435-9.114-3.023-13.099-4.646c20.333-4.664,34.402-12.996,41.593-18.112
	c11.55,5.1,24.238,7.777,37.258,7.478c6.793-0.157,13.483-1.105,20-2.792v16.468C111.177,263.194,82.359,263.741,53.379,254.973z
	 M243.621,254.973c-28.98,8.768-57.797,8.221-85.752-1.605v-16.398c7.054,1.799,14.375,2.747,21.846,2.747
	c12.427,0,24.457-2.566,35.49-7.444c7.216,5.121,21.258,13.409,41.515,18.055C252.735,251.95,248.361,253.539,243.621,254.973z"/>
<g>
</g>
<g>
</g>
<g>
</g>
<g>
</g>
<g>
</g>
<g>
</g>
<g>
</g>
<g>
</g>
<g>
</g>
<g>
</g>
<g>
</g>
<g>
</g>
<g>
</g>
<g>
</g>
<g>
</g>
</svg>
