<?xml version="1.0" encoding="iso-8859-1"?>
<!-- Generator: Adobe Illustrator 18.0.0, SVG Export Plug-In . SVG Version: 6.00 Build 0)  -->
<!DOCTYPE svg PUBLIC "-//W3C//DTD SVG 1.1//EN" "http://www.w3.org/Graphics/SVG/1.1/DTD/svg11.dtd">
<svg version="1.1" id="Capa_1" xmlns="http://www.w3.org/2000/svg" xmlns:xlink="http://www.w3.org/1999/xlink" x="0px" y="0px"
	 viewBox="0 0 297 297" style="enable-background:new 0 0 297 297;" xml:space="preserve">
<g>
	<path d="M148.5,87.688c25.481,0,50.507-8.466,71.332-16.065c-4.078-6.163-9.667-11.792-16.659-16.641
		c-14.74-10.222-34.156-15.85-54.673-15.85s-39.933,5.628-54.673,15.85c-6.993,4.848-12.582,10.478-16.66,16.642
		C97.99,79.222,123.015,87.688,148.5,87.688z"/>
	<path d="M66.392,84.771C49.661,78.619,36.447,73.76,25.524,73.76C15.991,73.76,0,77.833,0,105.114
		c0,26.714,4.423,65.169,25.493,96.664c24.9,37.219,66.285,56.09,123.007,56.09s98.106-18.871,123.007-56.09
		c21.07-31.495,25.493-69.95,25.493-96.664c0-27.281-15.991-31.354-25.524-31.354c-10.925,0-24.14,4.859-40.871,11.011
		c-22.986,8.452-51.594,18.972-82.105,18.972C117.985,103.742,89.378,93.223,66.392,84.771z"/>
</g>
<g>
</g>
<g>
</g>
<g>
</g>
<g>
</g>
<g>
</g>
<g>
</g>
<g>
</g>
<g>
</g>
<g>
</g>
<g>
</g>
<g>
</g>
<g>
</g>
<g>
</g>
<g>
</g>
<g>
</g>
</svg>
