{
    "asset" : {
        "generator" : "Khronos glTF Blender I/O v1.7.33",
        "version" : "2.0"
    },
    "scene" : 0,
    "scenes" : [
        {
            "name" : "Scene",
            "nodes" : [
                10
            ]
        }
    ],
    "nodes" : [
        {
            "name" : "Bone.008",
            "rotation" : [
                -0.05911194160580635,
                0.008500317111611366,
                0.0575827993452549,
                0.9965529441833496
            ],
            "scale" : [
                1,
                1.0000001192092896,
                1.000000238418579
            ],
            "translation" : [
                9.871373407577266e-08,
                0.29618504643440247,
                6.036747102200479e-09
            ]
        },
        {
            "children" : [
                0
            ],
            "name" : "Bone.007",
            "rotation" : [
                -0.029484396800398827,
                0.0036919587291777134,
                -0.013524253852665424,
                0.9994669556617737
            ],
            "scale" : [
                0.9999999403953552,
                1,
                1.0000001192092896
            ],
            "translation" : [
                7.050593353596923e-08,
                0.3619714379310608,
                -6.923883688614296e-09
            ]
        },
        {
            "children" : [
                1
            ],
            "name" : "Bone.006",
            "rotation" : [
                -0.0016672620549798012,
                5.378475543693639e-05,
                -0.032050881534814835,
                0.9994848370552063
            ],
            "translation" : [
                -1.3133350762473128e-07,
                0.3125632703304291,
                -7.239246535561961e-09
            ]
        },
        {
            "children" : [
                2
            ],
            "name" : "Bone.005",
            "rotation" : [
                -0.10562077164649963,
                -0.02892579697072506,
                0.2696528136730194,
                0.9567104578018188
            ],
            "scale" : [
                1.0000001192092896,
                1,
                1.0000001192092896
            ],
            "translation" : [
                -3.350142208091711e-08,
                0.37228596210479736,
                2.7942702374161854e-08
            ]
        },
        {
            "children" : [
                3
            ],
            "name" : "Bone.004",
            "rotation" : [
                -0.10713024437427521,
                -0.03783927112817764,
                -0.012592151761054993,
                0.9934449195861816
            ],
            "scale" : [
                0.9999998807907104,
                0.9999998211860657,
                0.9999999403953552
            ],
            "translation" : [
                -8.434364318077314e-09,
                0.3623632490634918,
                -2.639246599045464e-09
            ]
        },
        {
            "children" : [
                4
            ],
            "name" : "Bone.003",
            "rotation" : [
                -4.4455026326772895e-09,
                -5.6256507008356493e-08,
                -0.006103993393480778,
                0.9999814629554749
            ],
            "scale" : [
                0.9999998807907104,
                0.9999999403953552,
                1
            ],
            "translation" : [
                1.3431331602475893e-08,
                0.5034905076026917,
                2.7720259421215587e-09
            ]
        },
        {
            "children" : [
                5
            ],
            "name" : "Bone.002",
            "rotation" : [
                -0.023236548528075218,
                -0.008048193529248238,
                0.020242242142558098,
                0.9994926452636719
            ],
            "translation" : [
                7.4446262487981585e-09,
                0.5131499171257019,
                5.587936335871291e-09
            ]
        },
        {
            "children" : [
                6
            ],
            "name" : "Bone.001",
            "rotation" : [
                0.06254686415195465,
                0.017654437571763992,
                -0.000279813859378919,
                0.9978858828544617
            ],
            "scale" : [
                1,
                1,
                0.9999999403953552
            ],
            "translation" : [
                1.1380256899786969e-16,
                0.7536539435386658,
                1.117101966485734e-08
            ]
        },
        {
            "children" : [
                7
            ],
            "name" : "Bone",
            "rotation" : [
                0.14103445410728455,
                0.020841466262936592,
                -0.021323030814528465,
                0.9895555973052979
            ],
            "scale" : [
                1,
                1,
                0.9999999403953552
            ],
            "translation" : [
                -0.09651389718055725,
                -0.032730620354413986,
                0.060174938291311264
            ]
        },
        {
            "mesh" : 0,
            "name" : "Sphere.001",
            "skin" : 0
        },
        {
            "children" : [
                9,
                8
            ],
            "name" : "Armature",
            "rotation" : [
                -0.6829070448875427,
                -0.12314356863498688,
                0.09100044518709183,
                -0.7142776846885681
            ],
            "translation" : [
                0.5661964416503906,
                -0.738701581954956,
                0.5833936929702759
            ]
        }
    ],
    "materials" : [
        {
            "doubleSided" : true,
            "name" : "alien",
            "pbrMetallicRoughness" : {
                "baseColorFactor" : [
                    0.06661704182624817,
                    0.06661704182624817,
                    0.06661704182624817,
                    1
                ],
                "metallicFactor" : 0,
                "roughnessFactor" : 0.5
            }
        }
    ],
    "meshes" : [
        {
            "name" : "Sphere.001",
            "primitives" : [
                {
                    "attributes" : {
                        "POSITION" : 0,
                        "NORMAL" : 1,
                        "TEXCOORD_0" : 2,
                        "JOINTS_0" : 3,
                        "WEIGHTS_0" : 4
                    },
                    "indices" : 5,
                    "material" : 0
                }
            ]
        }
    ],
    "skins" : [
        {
            "inverseBindMatrices" : 6,
            "joints" : [
                8,
                7,
                6,
                5,
                4,
                3,
                2,
                1,
                0
            ],
            "name" : "Armature"
        }
    ],
    "accessors" : [
        {
            "bufferView" : 0,
            "componentType" : 5126,
            "count" : 40960,
            "max" : [
                2.1340763568878174,
                -0.17389033734798431,
                4.535844802856445
            ],
            "min" : [
                0.4832743704319,
                -1.1491996049880981,
                0.5928753018379211
            ],
            "type" : "VEC3"
        },
        {
            "bufferView" : 1,
            "componentType" : 5126,
            "count" : 40960,
            "type" : "VEC3"
        },
        {
            "bufferView" : 2,
            "componentType" : 5126,
            "count" : 40960,
            "type" : "VEC2"
        },
        {
            "bufferView" : 3,
            "componentType" : 5121,
            "count" : 40960,
            "type" : "VEC4"
        },
        {
            "bufferView" : 4,
            "componentType" : 5126,
            "count" : 40960,
            "type" : "VEC4"
        },
        {
            "bufferView" : 5,
            "componentType" : 5123,
            "count" : 61440,
            "type" : "SCALAR"
        },
        {
            "bufferView" : 6,
            "componentType" : 5126,
            "count" : 9,
            "type" : "MAT4"
        }
    ],
    "bufferViews" : [
        {
            "buffer" : 0,
            "byteLength" : 491520,
            "byteOffset" : 0
        },
        {
            "buffer" : 0,
            "byteLength" : 491520,
            "byteOffset" : 491520
        },
        {
            "buffer" : 0,
            "byteLength" : 327680,
            "byteOffset" : 983040
        },
        {
            "buffer" : 0,
            "byteLength" : 163840,
            "byteOffset" : 1310720
        },
        {
            "buffer" : 0,
            "byteLength" : 655360,
            "byteOffset" : 1474560
        },
        {
            "buffer" : 0,
            "byteLength" : 122880,
            "byteOffset" : 2129920
        },
        {
            "buffer" : 0,
            "byteLength" : 576,
            "byteOffset" : 2252800
        }
    ],
    "buffers" : [
        {
            "byteLength" : 2253376,
            "uri" : "alienHand.bin"
        }
    ]
}
